# xmcd
#
# Track frame offsets:
#	150
#	8639
#	37081
#	54151
#	73454
#	99227
#	106517
#	127811
#	151257
#	169742
#	181904
#
# Disc length: 2989 seconds
#
# Revision: 0
# Processed by: cddbd v1.5.2PL0 Copyright (c) Steve Scherf et al.
# Submitted via: EasyCDDAExtractor 11.5.3.1
#
DISCID=7d0bab0b
DTITLE=Radius - Neighborhood Suicide
DYEAR=2008
DGENRE=Hip Hop
TTITLE0=Humboldt Park (3241982 Intro)
TTITLE1=Uptown (Awaken)
TTITLE2=Logan Square (Rents Due)
TTITLE3=South Shore (Baahumbug!)
TTITLE4=Bucktown (Fuck Work)
TTITLE5=L.S.D. (Interlude)
TTITLE6=Englewood (Necessary Growth)
TTITLE7=Hyde Park (I Miss You)
TTITLE8=Rogers Park (North Pole Bakery)
TTITLE9=90/94 (Interlude)
TTITLE10=South Chicago (The Journey)
EXTD=
EXTT0=
EXTT1=
EXTT2=
EXTT3=
EXTT4=
EXTT5=
EXTT6=
EXTT7=
EXTT8=
EXTT9=
EXTT10=
PLAYORDER=
